<svg id="bb30a476-2911-45ff-8578-ef4d4a5d5ecc" data-name="Capa 1" xmlns="http://www.w3.org/2000/svg" xmlns:xlink="http://www.w3.org/1999/xlink" viewBox="0 0 337.56 85.17"><defs><clipPath id="3c7aca42-7257-42ae-9470-91e457fdf954" transform="translate(0 -2.4)"><rect x="11.09" y="57.94" width="69.04" height="23.66" style="fill:none"/></clipPath></defs><title>logo-abeigon</title><path d="M135.6,51h-5.45l-4.45-11.78H107.88L103.69,51H98.21L114.33,9h5.1ZM124.08,34.8l-6.59-17.9a17.09,17.09,0,0,1-.64-2.81h-.12a15.73,15.73,0,0,1-.67,2.81l-6.53,17.9Z" transform="translate(0 -2.4)" style="fill:#61605d"/><path d="M149.05,46.67h-.12V51h-4.8V6.59h4.8V26.28h.12a11.36,11.36,0,0,1,10.37-6,11,11,0,0,1,9,4q3.27,4,3.27,10.8,0,7.53-3.66,12.06a12.19,12.19,0,0,1-10,4.53A9.87,9.87,0,0,1,149.05,46.67Zm-.12-12.1v4.19a8.92,8.92,0,0,0,2.42,6.31,8.62,8.62,0,0,0,13-.75Q166.81,41,166.81,35q0-5-2.31-7.85a7.66,7.66,0,0,0-6.27-2.84,8.51,8.51,0,0,0-6.74,2.92A10.7,10.7,0,0,0,148.94,34.57Z" transform="translate(0 -2.4)" style="fill:#61605d"/><path d="M206.52,37.21H185.34q.12,5,2.7,7.73a9.29,9.29,0,0,0,7.09,2.72,14.74,14.74,0,0,0,9.32-3.34v4.51q-4,2.87-10.46,2.87t-10-4.09q-3.63-4.09-3.63-11.5,0-7,4-11.41a12.73,12.73,0,0,1,9.86-4.41q5.89,0,9.11,3.81t3.22,10.58Zm-4.92-4.07a9.78,9.78,0,0,0-2-6.47,6.84,6.84,0,0,0-5.49-2.31,7.76,7.76,0,0,0-5.77,2.43,11,11,0,0,0-2.93,6.36Z" transform="translate(0 -2.4)" style="fill:#61605d"/><path d="M218.92,13.39a3,3,0,0,1-2.2-.88,3,3,0,0,1-.91-2.23,3.08,3.08,0,0,1,3.11-3.13,3.1,3.1,0,0,1,2.24.89,3,3,0,0,1,.92,2.24,3,3,0,0,1-.92,2.2A3.08,3.08,0,0,1,218.92,13.39Zm2.34,29.24q0,4.13,3.19,4.13a7.71,7.71,0,0,0,2.31-.32v4.34a13.62,13.62,0,0,1-1.48.28,13.78,13.78,0,0,1-1.95.13,7.67,7.67,0,0,1-2.7-.47,5.75,5.75,0,0,1-2.18-1.44A7,7,0,0,1,217,46.86a9.65,9.65,0,0,1-.54-3.38V21h4.8Z" transform="translate(0 -2.4)" style="fill:#61605d"/><path d="M260.59,48.6q0,16.52-15.82,16.52A21.24,21.24,0,0,1,235,63v-4.8A20,20,0,0,0,244.71,61q11.07,0,11.07-11.78V46h-.12a12.14,12.14,0,0,1-19.32,1.74q-3.41-4-3.41-10.74,0-7.65,3.68-12.16a12.28,12.28,0,0,1,10.06-4.51,9.78,9.78,0,0,1,9,4.86h.12V21h4.8Zm-4.8-11.16V33a8.58,8.58,0,0,0-2.42-6.12,8,8,0,0,0-6-2.55,8.34,8.34,0,0,0-7,3.24q-2.52,3.24-2.52,9.07a12.4,12.4,0,0,0,2.42,8,7.81,7.81,0,0,0,6.4,3,8.36,8.36,0,0,0,6.58-2.87A10.7,10.7,0,0,0,255.79,37.44Z" transform="translate(0 -2.4)" style="fill:#61605d"/><path d="M285.86,51.71q-6.65,0-10.62-4.2t-4-11.15q0-7.56,4.13-11.81t11.16-4.25q6.71,0,10.47,4.13t3.76,11.46q0,7.18-4.06,11.5T285.86,51.71Zm.35-27.36a9.14,9.14,0,0,0-7.32,3.15q-2.7,3.15-2.7,8.69,0,5.33,2.72,8.41a9.26,9.26,0,0,0,7.29,3.08,8.78,8.78,0,0,0,7.16-3q2.5-3,2.5-8.58t-2.5-8.67A8.74,8.74,0,0,0,286.21,24.35Zm7-18.63-7.68,9.61h-3.72l6.53-9.61Z" transform="translate(0 -2.4)" style="fill:#61605d"/><path d="M336.38,51h-4.8V33.9q0-9.55-7-9.55a7.56,7.56,0,0,0-6,2.71,10,10,0,0,0-2.36,6.84V51h-4.8V21h4.8v5h.12a10.83,10.83,0,0,1,9.84-5.68q4.92,0,7.53,3.18t2.61,9.18Z" transform="translate(0 -2.4)" style="fill:#61605d"/><path d="M108.3,83.43h-1.6L105.39,80h-5.23l-1.23,3.46H97.33l4.73-12.32h1.5Zm-3.38-4.75L103,73.43a5,5,0,0,1-.19-.83h0a4.61,4.61,0,0,1-.2.83l-1.92,5.25Z" transform="translate(0 -2.4)" style="fill:#8c8b8b"/><path d="M113.57,82.16h0v1.27h-1.41v-13h1.41v5.78h0a3.33,3.33,0,0,1,3-1.75,3.22,3.22,0,0,1,2.65,1.18,4.87,4.87,0,0,1,1,3.17,5.46,5.46,0,0,1-1.07,3.54,3.58,3.58,0,0,1-2.94,1.33A2.9,2.9,0,0,1,113.57,82.16Zm0-3.55v1.23a2.62,2.62,0,0,0,.71,1.85,2.53,2.53,0,0,0,3.81-.22,4.5,4.5,0,0,0,.73-2.72,3.55,3.55,0,0,0-.68-2.3,2.25,2.25,0,0,0-1.84-.83,2.5,2.5,0,0,0-2,.86A3.14,3.14,0,0,0,113.53,78.61Z" transform="translate(0 -2.4)" style="fill:#8c8b8b"/><path d="M128.35,83.64a4.08,4.08,0,0,1-3.12-1.23,4.57,4.57,0,0,1-1.16-3.27,4.76,4.76,0,0,1,1.21-3.46,4.36,4.36,0,0,1,3.27-1.25,4,4,0,0,1,3.07,1.21,4.81,4.81,0,0,1,1.1,3.36,4.73,4.73,0,0,1-1.19,3.37A4.17,4.17,0,0,1,128.35,83.64Zm.1-8a2.68,2.68,0,0,0-2.15.92,3.79,3.79,0,0,0-.79,2.55,3.59,3.59,0,0,0,.8,2.47,2.72,2.72,0,0,0,2.14.9,2.58,2.58,0,0,0,2.1-.89,3.84,3.84,0,0,0,.73-2.52,3.91,3.91,0,0,0-.73-2.54A2.57,2.57,0,0,0,128.45,75.61Z" transform="translate(0 -2.4)" style="fill:#8c8b8b"/><path d="M144.69,82.73q0,4.85-4.64,4.85A6.24,6.24,0,0,1,137.2,87V85.55a5.86,5.86,0,0,0,2.84.83q3.25,0,3.25-3.46V82h0a3.56,3.56,0,0,1-5.67.51,4.69,4.69,0,0,1-1-3.15,5.48,5.48,0,0,1,1.08-3.57,3.6,3.6,0,0,1,3-1.32,2.87,2.87,0,0,1,2.64,1.43h0V74.63h1.41Zm-1.41-3.27v-1.3a2.52,2.52,0,0,0-.71-1.8,2.33,2.33,0,0,0-1.77-.75,2.45,2.45,0,0,0-2,.95,4.24,4.24,0,0,0-.74,2.66,3.64,3.64,0,0,0,.71,2.35,2.29,2.29,0,0,0,1.88.88,2.45,2.45,0,0,0,1.93-.84A3.14,3.14,0,0,0,143.29,79.45Z" transform="translate(0 -2.4)" style="fill:#8c8b8b"/><path d="M156,83.43h-1.41V82.06h0a3,3,0,0,1-2.71,1.58,2.89,2.89,0,0,1-2.06-.7,2.41,2.41,0,0,1-.74-1.85q0-2.47,2.9-2.87l2.64-.37q0-2.24-1.81-2.24A4.33,4.33,0,0,0,150,76.69V75.25a5.45,5.45,0,0,1,3-.82q3.1,0,3.1,3.28ZM154.64,79l-2.12.29a3.43,3.43,0,0,0-1.48.49,1.4,1.4,0,0,0-.5,1.23A1.34,1.34,0,0,0,151,82a1.78,1.78,0,0,0,1.22.41,2.26,2.26,0,0,0,1.73-.74,2.62,2.62,0,0,0,.68-1.86Z" transform="translate(0 -2.4)" style="fill:#8c8b8b"/><path d="M168.41,83.43H167v-1.5h0a3.55,3.55,0,0,1-5.68.52,4.85,4.85,0,0,1-1-3.22,5.28,5.28,0,0,1,1.1-3.5,3.63,3.63,0,0,1,2.93-1.31A2.82,2.82,0,0,1,167,75.85h0V70.4h1.41Zm-1.41-4v-1.3a2.52,2.52,0,0,0-.71-1.8,2.36,2.36,0,0,0-1.79-.74,2.43,2.43,0,0,0-2,.95,4.14,4.14,0,0,0-.74,2.61,3.73,3.73,0,0,0,.71,2.4,2.32,2.32,0,0,0,1.9.88,2.41,2.41,0,0,0,1.91-.85A3.17,3.17,0,0,0,167,79.45Z" transform="translate(0 -2.4)" style="fill:#8c8b8b"/><path d="M177.14,83.64A4.08,4.08,0,0,1,174,82.4a4.57,4.57,0,0,1-1.16-3.27,4.76,4.76,0,0,1,1.21-3.46,4.36,4.36,0,0,1,3.27-1.25,4,4,0,0,1,3.07,1.21,4.81,4.81,0,0,1,1.1,3.36,4.73,4.73,0,0,1-1.19,3.37A4.17,4.17,0,0,1,177.14,83.64Zm.1-8a2.68,2.68,0,0,0-2.15.92,3.79,3.79,0,0,0-.79,2.55,3.59,3.59,0,0,0,.8,2.47,2.72,2.72,0,0,0,2.14.9,2.58,2.58,0,0,0,2.1-.89,3.84,3.84,0,0,0,.74-2.52,3.91,3.91,0,0,0-.74-2.54A2.56,2.56,0,0,0,177.25,75.61Z" transform="translate(0 -2.4)" style="fill:#8c8b8b"/><path d="M185.45,83.11V81.6a4.18,4.18,0,0,0,2.54.85q1.86,0,1.86-1.24a1.07,1.07,0,0,0-.16-.6,1.56,1.56,0,0,0-.43-.43,3.24,3.24,0,0,0-.64-.34l-.79-.31a10.32,10.32,0,0,1-1-.47,3.12,3.12,0,0,1-.74-.53,2,2,0,0,1-.45-.67,2.39,2.39,0,0,1-.15-.89,2.11,2.11,0,0,1,.28-1.1,2.52,2.52,0,0,1,.76-.8,3.5,3.5,0,0,1,1.08-.49,4.8,4.8,0,0,1,1.25-.16,5,5,0,0,1,2,.39v1.43a4,4,0,0,0-2.23-.64,2.64,2.64,0,0,0-.71.09,1.74,1.74,0,0,0-.54.25,1.17,1.17,0,0,0-.35.39,1,1,0,0,0-.12.5,1.21,1.21,0,0,0,.13.58,1.26,1.26,0,0,0,.37.41,2.79,2.79,0,0,0,.58.33l.78.32a10.86,10.86,0,0,1,1,.46,3.61,3.61,0,0,1,.79.53,2.07,2.07,0,0,1,.5.68,2.21,2.21,0,0,1,.18.92,2.17,2.17,0,0,1-.29,1.13,2.48,2.48,0,0,1-.77.8,3.54,3.54,0,0,1-1.11.47,5.51,5.51,0,0,1-1.32.15A5,5,0,0,1,185.45,83.11Z" transform="translate(0 -2.4)" style="fill:#8c8b8b"/><path d="M213.66,83.63a2.57,2.57,0,0,1-.86-.13,2.5,2.5,0,0,1-.69-.38,4,4,0,0,1-.61-.6q-.3-.35-.62-.8a6.34,6.34,0,0,1-.79.71,5.87,5.87,0,0,1-1,.61,5.91,5.91,0,0,1-2.62.58,5.92,5.92,0,0,1-1.7-.23,3.78,3.78,0,0,1-1.32-.68,3.09,3.09,0,0,1-.85-1.11,3.59,3.59,0,0,1-.31-1.52,3.48,3.48,0,0,1,.75-2.25,5.39,5.39,0,0,1,2.11-1.53,4.83,4.83,0,0,1-.52-.44,3.19,3.19,0,0,1-.46-.58,3.13,3.13,0,0,1-.33-.71,3,3,0,0,1,.12-2.06,2.54,2.54,0,0,1,.67-.88,2.93,2.93,0,0,1,1-.55,4.14,4.14,0,0,1,1.26-.18,3.83,3.83,0,0,1,1.22.18,2.81,2.81,0,0,1,1,.53,2.4,2.4,0,0,1,.62.83,2.75,2.75,0,0,1-.37,2.79,4.57,4.57,0,0,1-1.77,1.17,5.14,5.14,0,0,1,1.07.57,6.4,6.4,0,0,1,.89.75,8.38,8.38,0,0,1,.76.89q.35.47.7,1a7.24,7.24,0,0,0,1-2.14,8.46,8.46,0,0,0,.35-2.45,4.69,4.69,0,0,0,0-.62,5.49,5.49,0,0,0-.11-.57h1.37a2.93,2.93,0,0,1,.08.54l0,.61a7.72,7.72,0,0,1-.16,1.57,10.59,10.59,0,0,1-.44,1.53,10.8,10.8,0,0,1-.64,1.41,11.27,11.27,0,0,1-.77,1.23c.2.27.38.51.55.72a3.57,3.57,0,0,0,.5.51,1.83,1.83,0,0,0,.52.31,1.8,1.8,0,0,0,.61.1,2,2,0,0,0,.52-.07,5.5,5.5,0,0,0,.55-.17v1.31a3.43,3.43,0,0,1-.65.18A3.82,3.82,0,0,1,213.66,83.63Zm-7.21-1.22a4.85,4.85,0,0,0,1.2-.14,4.94,4.94,0,0,0,1-.38,4.51,4.51,0,0,0,.84-.55,6.68,6.68,0,0,0,.69-.66q-.52-.82-1-1.4a8.06,8.06,0,0,0-.89-1,5.49,5.49,0,0,0-1-.72,8,8,0,0,0-1.18-.56,7.55,7.55,0,0,0-1,.48,3.32,3.32,0,0,0-.79.62,2.65,2.65,0,0,0-.52.83A3,3,0,0,0,203.7,80a2.35,2.35,0,0,0,.21,1,2.07,2.07,0,0,0,.59.74,2.58,2.58,0,0,0,.87.45A3.69,3.69,0,0,0,206.45,82.41Zm2.15-8.77a1.54,1.54,0,0,0-1.11-1.52,2,2,0,0,0-.59-.09,1.93,1.93,0,0,0-1.34.46,1.61,1.61,0,0,0-.51,1.24,2,2,0,0,0,.11.66,2.18,2.18,0,0,0,.3.58,2.43,2.43,0,0,0,.45.47,3.08,3.08,0,0,0,.55.35,4.53,4.53,0,0,0,1.62-.88A1.67,1.67,0,0,0,208.6,73.63Z" transform="translate(0 -2.4)" style="fill:#8c8b8b"/><path d="M234.55,82.92a7.23,7.23,0,0,1-3.4.72,5.49,5.49,0,0,1-4.21-1.69,6.25,6.25,0,0,1-1.58-4.44,6.55,6.55,0,0,1,1.78-4.78,6,6,0,0,1,4.51-1.82,7.22,7.22,0,0,1,2.9.51v1.54a5.9,5.9,0,0,0-2.92-.74,4.48,4.48,0,0,0-3.44,1.42,5.34,5.34,0,0,0-1.32,3.79A5.08,5.08,0,0,0,228.1,81a4.2,4.2,0,0,0,3.24,1.34,6.07,6.07,0,0,0,3.21-.82Z" transform="translate(0 -2.4)" style="fill:#8c8b8b"/><path d="M242.75,83.64a4.08,4.08,0,0,1-3.12-1.23,4.57,4.57,0,0,1-1.16-3.27,4.75,4.75,0,0,1,1.21-3.46A4.35,4.35,0,0,1,243,74.43,4,4,0,0,1,246,75.64a4.81,4.81,0,0,1,1.1,3.36,4.73,4.73,0,0,1-1.19,3.37A4.17,4.17,0,0,1,242.75,83.64Zm.1-8a2.68,2.68,0,0,0-2.15.92,3.79,3.79,0,0,0-.79,2.55,3.59,3.59,0,0,0,.8,2.47,2.72,2.72,0,0,0,2.14.9,2.58,2.58,0,0,0,2.1-.89,3.84,3.84,0,0,0,.74-2.52A3.91,3.91,0,0,0,245,76.5,2.56,2.56,0,0,0,242.85,75.61Z" transform="translate(0 -2.4)" style="fill:#8c8b8b"/><path d="M258.89,83.43h-1.41v-5q0-2.8-2-2.8a2.22,2.22,0,0,0-1.75.79,3,3,0,0,0-.69,2v5h-1.41v-8.8H253v1.46h0a3.17,3.17,0,0,1,2.89-1.67,2.69,2.69,0,0,1,2.21.93,4.15,4.15,0,0,1,.76,2.69Z" transform="translate(0 -2.4)" style="fill:#8c8b8b"/><path d="M263.21,83.11V81.6a4.18,4.18,0,0,0,2.54.85q1.86,0,1.86-1.24a1.07,1.07,0,0,0-.16-.6,1.56,1.56,0,0,0-.43-.43,3.24,3.24,0,0,0-.64-.34l-.79-.31a10.32,10.32,0,0,1-1-.47,3.12,3.12,0,0,1-.74-.53,2,2,0,0,1-.45-.67,2.39,2.39,0,0,1-.15-.89,2.11,2.11,0,0,1,.28-1.1,2.52,2.52,0,0,1,.76-.8,3.5,3.5,0,0,1,1.08-.49,4.8,4.8,0,0,1,1.25-.16,5,5,0,0,1,2,.39v1.43a4,4,0,0,0-2.23-.64,2.64,2.64,0,0,0-.71.09,1.74,1.74,0,0,0-.54.25,1.17,1.17,0,0,0-.35.39,1,1,0,0,0-.12.5,1.21,1.21,0,0,0,.13.58,1.26,1.26,0,0,0,.37.41,2.79,2.79,0,0,0,.58.33l.78.32a10.86,10.86,0,0,1,1,.46,3.61,3.61,0,0,1,.79.53,2.07,2.07,0,0,1,.5.68,2.21,2.21,0,0,1,.18.92,2.17,2.17,0,0,1-.29,1.13,2.48,2.48,0,0,1-.77.8,3.54,3.54,0,0,1-1.11.47,5.51,5.51,0,0,1-1.32.15A5,5,0,0,1,263.21,83.11Z" transform="translate(0 -2.4)" style="fill:#8c8b8b"/><path d="M280.53,83.43h-1.41V82h0a2.89,2.89,0,0,1-2.72,1.6q-3.15,0-3.15-3.75V74.63h1.4v5q0,2.78,2.13,2.78a2.16,2.16,0,0,0,1.7-.76,2.91,2.91,0,0,0,.67-2V74.63h1.41Z" transform="translate(0 -2.4)" style="fill:#8c8b8b"/><path d="M286.89,81q0,1.21.94,1.21a2.26,2.26,0,0,0,.68-.09v1.27l-.43.08a4,4,0,0,1-.57,0,2.25,2.25,0,0,1-.79-.14,1.7,1.7,0,0,1-.64-.42,2,2,0,0,1-.43-.71,2.82,2.82,0,0,1-.16-1V70.4h1.41Z" transform="translate(0 -2.4)" style="fill:#8c8b8b"/><path d="M296.31,83.35a2.72,2.72,0,0,1-1.32.28q-2.31,0-2.31-2.58V75.83h-1.51v-1.2h1.51V72.48L294.1,72v2.6h2.22v1.2H294.1v5a2.06,2.06,0,0,0,.3,1.26,1.2,1.2,0,0,0,1,.38,1.48,1.48,0,0,0,.92-.29Z" transform="translate(0 -2.4)" style="fill:#8c8b8b"/><path d="M303.94,83.64a4.08,4.08,0,0,1-3.12-1.23,4.57,4.57,0,0,1-1.16-3.27,4.75,4.75,0,0,1,1.21-3.46,4.35,4.35,0,0,1,3.27-1.25,4,4,0,0,1,3.07,1.21,4.81,4.81,0,0,1,1.1,3.36,4.73,4.73,0,0,1-1.19,3.37A4.17,4.17,0,0,1,303.94,83.64Zm.1-8a2.68,2.68,0,0,0-2.15.92,3.79,3.79,0,0,0-.79,2.55,3.59,3.59,0,0,0,.8,2.47,2.72,2.72,0,0,0,2.14.9,2.58,2.58,0,0,0,2.1-.89,3.84,3.84,0,0,0,.74-2.52,3.91,3.91,0,0,0-.74-2.54A2.56,2.56,0,0,0,304,75.61Z" transform="translate(0 -2.4)" style="fill:#8c8b8b"/><path d="M317.36,76.06a1.72,1.72,0,0,0-1.07-.28,1.8,1.8,0,0,0-1.51.85,3.94,3.94,0,0,0-.61,2.32v4.49h-1.41v-8.8h1.41v1.81h0a3.07,3.07,0,0,1,.92-1.45,2.1,2.1,0,0,1,1.38-.52,2.3,2.3,0,0,1,.84.12Z" transform="translate(0 -2.4)" style="fill:#8c8b8b"/><path d="M327.93,79.38h-6.21a3.29,3.29,0,0,0,.79,2.27,2.73,2.73,0,0,0,2.08.8,4.33,4.33,0,0,0,2.73-1V82.8a5.11,5.11,0,0,1-3.07.84,3.72,3.72,0,0,1-2.93-1.2,4.91,4.91,0,0,1-1.07-3.37,4.81,4.81,0,0,1,1.16-3.35,3.73,3.73,0,0,1,2.89-1.29A3.31,3.31,0,0,1,327,75.54a4.66,4.66,0,0,1,.95,3.1Zm-1.44-1.19a2.87,2.87,0,0,0-.59-1.9,2,2,0,0,0-1.61-.68,2.28,2.28,0,0,0-1.69.71,3.25,3.25,0,0,0-.86,1.87Z" transform="translate(0 -2.4)" style="fill:#8c8b8b"/><path d="M331.73,83.11V81.6a4.18,4.18,0,0,0,2.54.85q1.86,0,1.86-1.24a1.07,1.07,0,0,0-.16-.6,1.56,1.56,0,0,0-.43-.43,3.24,3.24,0,0,0-.64-.34l-.79-.31a10.32,10.32,0,0,1-1-.47,3.12,3.12,0,0,1-.74-.53,2,2,0,0,1-.45-.67,2.39,2.39,0,0,1-.15-.89,2.11,2.11,0,0,1,.28-1.1,2.52,2.52,0,0,1,.76-.8,3.5,3.5,0,0,1,1.08-.49,4.8,4.8,0,0,1,1.25-.16,5,5,0,0,1,2,.39v1.43a4,4,0,0,0-2.23-.64,2.64,2.64,0,0,0-.71.09,1.74,1.74,0,0,0-.54.25,1.17,1.17,0,0,0-.35.39,1,1,0,0,0-.12.5,1.21,1.21,0,0,0,.13.58,1.26,1.26,0,0,0,.37.41,2.79,2.79,0,0,0,.58.33l.78.32a10.86,10.86,0,0,1,1,.46,3.61,3.61,0,0,1,.79.53,2.07,2.07,0,0,1,.5.68,2.21,2.21,0,0,1,.18.92,2.17,2.17,0,0,1-.29,1.13,2.48,2.48,0,0,1-.77.8,3.54,3.54,0,0,1-1.11.47,5.51,5.51,0,0,1-1.32.15A5,5,0,0,1,331.73,83.11Z" transform="translate(0 -2.4)" style="fill:#8c8b8b"/><path d="M84.39,44.58A42.19,42.19,0,1,1,42.17,2.4,42.19,42.19,0,0,1,84.39,44.58Z" transform="translate(0 -2.4)" style="fill:#084169"/><polygon points="16.85 49.63 20.1 49.63 43.73 9.47 41.97 6.47 16.85 49.63" style="fill:#fff"/><polygon points="57.06 49.63 30.29 49.63 30.48 47 51.93 47 45.56 35.79 47.09 33.28 57.06 49.63" style="fill:#fff"/><polyline points="52.56 24.47 50.97 27.07 64.02 49.63 67.34 49.63" style="fill:#fff"/><polygon points="27.02 49.63 30.2 49.63 48.78 18.08 47.05 15.14 27.02 49.63" style="fill:#fff"/><polyline points="68.02 53.15 67.94 55.54 16.5 55.54 16.42 53.15" style="fill:#fff"/><g style="clip-path:url(#3c7aca42-7257-42ae-9470-91e457fdf954)"><path d="M66.85,55.28c0,11-11,20-24.63,20s-24.62-8.93-24.62-20,11-19.95,24.62-19.95S66.85,44.27,66.85,55.28Z" transform="translate(0 -2.4)" style="fill:none;stroke:#fff;stroke-miterlimit:10;stroke-width:2.6111500000000003px"/></g><path d="M40.52,5.08" transform="translate(0 -2.4)" style="fill:none;stroke:#fff;stroke-miterlimit:10;stroke-width:0.272821px"/><path d="M67.34,51" transform="translate(0 -2.4)" style="fill:none;stroke:#fff;stroke-miterlimit:10;stroke-width:0.272821px"/></svg>